# xmcd CD database file
# Copyright (C) 1993-1998 Ti Kan
#
# Track frame offsets:
#  150
#  16935
#  31285
#  44935
#  51000
#  63750
#  78625
#  95335
#  104850
#  124335
#  141935
#  161675
#  173250
#  187050
#  201410
#  215760
#
# Disc length: 3017 seconds
#
# Revision: 1
# Processed by: cddbd v1.4b41PL1 Copyright (c) Steve Scherf et al.
# Submitted via: CDWizzard Release:4.35
#
DISCID=ef0bc710
DTITLE=Michael Hakanson-Stacy - News from the Corner Store
DYEAR=1900
DGENRE=
TTITLE0=Georgia 12 String
TTITLE1=Long Winter Blues
TTITLE2=Step by Step
TTITLE3=Lily on Horseback
TTITLE4=News from the Corner Store
TTITLE5=SMall Talk
TTITLE6=Hard Times
TTITLE7=Dawn
TTITLE8=Shake It On Down
TTITLE9=The Rooster
TTITLE10=Education
TTITLE11=Whitingham Revisited
TTITLE12=God Don't Like It
TTITLE13=Gonna Go With Jesus
TTITLE14=Bullrush Blues
TTITLE15=G.K.'s Teetotaler's Blooze
EXTD=
EXTT0=
EXTT1=
EXTT2=
EXTT3=
EXTT4=
EXTT5=
EXTT6=
EXTT7=
EXTT8=
EXTT9=
EXTT10=
EXTT11=
EXTT12=
EXTT13=
EXTT14=
EXTT15=
PLAYORDER=
